<svg id="Layer_1" data-name="Layer 1" xmlns="http://www.w3.org/2000/svg" viewBox="0 0 1083.55 203.33"><defs><style>.cls-1{fill:#ff1800;}</style></defs><polygon points="173.17 0 173.17 120.18 133.71 65.82 94.33 120.18 69.68 154.22 0 154.22 0 181.65 66.9 181.65 82.69 181.65 101.93 155.25 133.71 111.63 200.6 203.33 200.6 0 173.17 0"/><polygon points="118.91 0 66.89 71.4 28.67 19 27.09 16.83 29.57 15.02 31.2 17.25 66.89 66.19 115.12 0 118.91 0"/><path d="M485,506.11a5.78,5.78,0,1,0,0,11.55,5.42,5.42,0,0,0,1.9-.33,5.77,5.77,0,0,0-1.9-11.22Zm-2.71,5.77a2.71,2.71,0,1,1,2.71,2.71A2.71,2.71,0,0,1,482.28,511.88Z" transform="translate(-458.22 -498.33)"/><polygon points="173.5 185.4 171.02 187.21 169.4 184.99 133.7 136.04 100.48 181.65 96.68 181.65 133.7 130.84 171.92 183.24 173.5 185.4"/><path d="M632.06,681.24a5.76,5.76,0,0,0-1.91.33,5.9,5.9,0,0,0-2.53,1.75,5.77,5.77,0,1,0,4.44-2.08Zm0,8.49a2.71,2.71,0,1,1,2.71-2.71A2.71,2.71,0,0,1,632.06,689.73Z" transform="translate(-458.22 -498.33)"/><polygon class="cls-1" points="27.44 83.15 66.9 137.52 106.27 83.15 133.71 45.27 133.71 0 66.9 91.71 0 0 0 139.72 27.44 139.72 27.44 83.15"/><path d="M1029.77,534.77l22.71,58.16,22.79-58.16L1098,592.93l22.64-58.16h26.68L1098,660.39l-23-61.13-22.49,61.13-49.32-125.62Z" transform="translate(-458.22 -498.33)"/><path d="M1148.25,657.65v-79h55.1l-7.18,22.79h-22.79v56.2Z" transform="translate(-458.22 -498.33)"/><path d="M1213.81,657.65v-79h25.13v79Zm.15-85.39V549h24.67v23.26Z" transform="translate(-458.22 -498.33)"/><path d="M1296.7,634.55h13v23.1h-13.59q-17.64,0-25.52-7.34t-7.88-23.73v-27h-13.74v-3.43l35.59-36.53H1288v19h19.67v20.92H1288V624.4c0,3.54.67,6.11,2,7.73S1293.58,634.55,1296.7,634.55Z" transform="translate(-458.22 -498.33)"/><path d="M1323.86,657.65v-79H1349v79Zm.16-85.39V549h24.66v23.26Z" transform="translate(-458.22 -498.33)"/><path d="M1406.59,599.27q-6.4,0-10,3.82T1393,613.94v43.71h-25.13v-79h17.64l5.62,7.18a25,25,0,0,1,9.13-6.48,30.28,30.28,0,0,1,11.79-2.26q14.67,0,23.88,9.13t9.21,24v47.46H1420V613.94q0-6.71-3.59-10.69T1406.59,599.27Z" transform="translate(-458.22 -498.33)"/><path d="M1519.3,585.37l5.77-6.71h16.71v80.39q0,15.3-6.72,21.78t-23.41,6.48h-42l5.46-22.95h36.53a4.88,4.88,0,0,0,3.74-1.33,5.57,5.57,0,0,0,1.25-4v-10a32.93,32.93,0,0,1-9.21,4.53,34.85,34.85,0,0,1-10.46,1.56q-16.7,0-28.33-11.08T1457,616.13q0-16.71,11.63-27.87T1497,577.1a35,35,0,0,1,12.26,2.11A29.91,29.91,0,0,1,1519.3,585.37Zm-18.74,47.46q8,0,13-4.61a15.66,15.66,0,0,0,5-12.09q0-7.65-5-12.26t-13-4.6q-8.11,0-13.19,4.6t-5.07,12.26q0,7.65,5.07,12.17T1500.56,632.83Z" transform="translate(-458.22 -498.33)"/><path class="cls-1" d="M810.21,534.83l-59.77,82-59.84-82v125h24.54v-50.6l35.3,48.63,35.23-48.63v50.6h24.54v-24a53.33,53.33,0,0,1,0-49.42Z" transform="translate(-458.22 -498.33)"/><path class="cls-1" d="M895.25,576.2a49.43,49.43,0,1,0,14.41,34.89A47.76,47.76,0,0,0,895.25,576.2ZM879,629.75a26.36,26.36,0,1,1,7.74-18.66A25.58,25.58,0,0,1,879,629.75Z" transform="translate(-458.22 -498.33)"/><path class="cls-1" d="M1008,611.09v49.3H985.06v-49.3a26.39,26.39,0,0,0-52.78,0v49.3H909.37V637.8a50.66,50.66,0,0,0,7.21-26.71,52.45,52.45,0,0,0-3.49-19.18,48.94,48.94,0,0,1,10.7-15.71A49.31,49.31,0,0,1,1008,611.09Z" transform="translate(-458.22 -498.33)"/></svg>